<svg xmlns="http://www.w3.org/2000/svg" data-name="Layer 1" viewBox="0 0 100 125" x="0px" y="0px"><title>Artboard 16</title><path d="M14.31,11.23a10,10,0,1,1,10,10A10,10,0,0,1,14.31,11.23ZM6.4,33.31,8.87,51.85a7.2,7.2,0,0,0,4.68,5.95L17.7,95.88A3.29,3.29,0,0,0,21,98.79h6.58a3.29,3.29,0,0,0,3.27-2.92l1.94-17.8,4.65-43.53a.45.45,0,0,1,.42-.4l23.57-1.52a3.61,3.61,0,0,0,3.42-3.09,3.47,3.47,0,0,0-3.23-3.85L35,24l-4.41-.08a.4.4,0,0,0-.32.15l-5.19,6.49a1,1,0,0,1-1.6,0L18.26,24a.41.41,0,0,0-.32-.16H14.82A8.47,8.47,0,0,0,6.4,33.31ZM83.81,46.11V48.8h5.66A4.19,4.19,0,0,1,93.65,53V90.65a4.19,4.19,0,0,1-4.18,4.18H47.62a4.19,4.19,0,0,1-4.18-4.18V53a4.19,4.19,0,0,1,4.18-4.18h5.52V46.11a4.18,4.18,0,0,1,8.36,0V48.8H75.45V46.11a4.18,4.18,0,0,1,8.37,0ZM51.8,62.3V86.47H85.29V62.3Zm10,14.82h4v4a2.73,2.73,0,0,0,5.47,0v-4h4a2.73,2.73,0,1,0,0-5.47h-4v-4a2.73,2.73,0,0,0-5.47,0v4h-4a2.73,2.73,0,0,0,0,5.47Z"/><text x="0" y="115" fill="#000000" font-size="5px" font-weight="bold" font-family="'Helvetica Neue', Helvetica, Arial-Unicode, Arial, Sans-serif">Created by Gregor Cresnar</text><text x="0" y="120" fill="#000000" font-size="5px" font-weight="bold" font-family="'Helvetica Neue', Helvetica, Arial-Unicode, Arial, Sans-serif">from the Noun Project</text></svg>