<svg xmlns:dc="http://purl.org/dc/elements/1.1/" xmlns:cc="http://creativecommons.org/ns#" xmlns:rdf="http://www.w3.org/1999/02/22-rdf-syntax-ns#" xmlns:svg="http://www.w3.org/2000/svg" xmlns="http://www.w3.org/2000/svg" xmlns:sodipodi="http://sodipodi.sourceforge.net/DTD/sodipodi-0.dtd" xmlns:inkscape="http://www.inkscape.org/namespaces/inkscape" version="1.1" x="0px" y="0px" viewBox="0 0 100 125"><g transform="translate(0,-952.36218)"><path style="text-indent:0;text-transform:none;direction:ltr;block-progression:tb;baseline-shift:baseline;color:#000000;enable-background:accumulate;" d="m 74,965.36218 c 1.053841,0.034 1.975419,1.0991 2,2 l 0,18 12,0 c 1.0819,0.025 1.975419,1.0991 2,2 l 0,43.00002 c 0,4.9514 -4.048591,9 -9,9 l -62,0 c -4.951409,0 -9.0000005,-4.0486 -9.0000005,-9 l 0,-63.00002 c 1.005e-4,-1.0472 0.9528305,-1.9999 2.0000005,-2 l 62,0 z m -2,4 -58,0 0,61.00002 c 0,2.8046 2.195409,5 5,5 l 54.75,0 c -1.011629,-1.4551 -1.75,-3.103 -1.75,-5 l 0,-61.00002 z m -8,6 c 1.05876,0 1.975419,1.0991 2,2 l 0,14 c -1.01e-4,1.0472 -0.95283,1.9999 -2,2 l -20,0 c -1.047169,-10e-5 -1.999899,-0.9528 -2,-2 l 0,-14 c 1.01e-4,-1.0472 0.952831,-1.9999 2,-2 l 20,0 z m -30,2 c 1.104569,0 2,0.8954 2,2 0,1.1046 -0.895431,2 -2,2 l -12,0 c -1.104569,0 -2,-0.8954 -2,-2 0,-1.1046 0.895431,-2 2,-2 l 12,0 z m 28,2 -16,0 0,10 16,0 0,-10 z m -28,8 c 1.104569,0 2,0.8954 2,2 0,1.1046 -0.895431,2 -2,2 l -12,0 c -1.104569,0 -2,-0.8954 -2,-2 0,-1.1046 0.895431,-2 2,-2 l 12,0 z m 52,2 -10,0 0,41.00002 c 0,2.8046 2.195411,5 5,5 2.804591,0 5,-2.1954 5,-5 l 0,-41.00002 z m -22,10 c 1.10457,0 2,0.89542 2,2.00002 0,1.1046 -0.89543,2 -2,2 l -42,0 c -1.104569,0 -2,-0.8954 -2,-2 0,-1.1046 0.895431,-2.00002 2,-2.00002 l 42,0 z m 0,11.00002 c 1.10457,0 2,0.8954 2,2 0,1.1046 -0.89543,2 -2,2 l -42,0 c -1.104569,0 -2,-0.8954 -2,-2 0,-1.1046 0.895431,-2 2,-2 l 42,0 z m 0,11 c 1.10457,0 2,0.8954 2,2 0,1.1046 -0.89543,2 -2,2 l -42,0 c -1.104569,0 -2,-0.8954 -2,-2 0,-1.1046 0.895431,-2 2,-2 l 42,0 z" fill="#000000" fill-opacity="1" stroke="none" marker="none" visibility="visible" display="inline" overflow="visible"/></g></svg>