<?xml version="1.0" encoding="utf-8"?>
<!-- Svg Vector Icons : http://www.onlinewebfonts.com/icon -->
<!DOCTYPE svg PUBLIC "-//W3C//DTD SVG 1.1//EN" "http://www.w3.org/Graphics/SVG/1.1/DTD/svg11.dtd">
<svg version="1.1" xmlns="http://www.w3.org/2000/svg" fill="#579165" xmlns:xlink="http://www.w3.org/1999/xlink" x="0px" y="0px" viewBox="0 0 1000 1000" enable-background="new 0 0 1000 1000" xml:space="preserve">
<g><g transform="translate(0.000000,511.000000) scale(0.100000,-0.100000)"><path d="M3969.6,4539c-604.8-75.6-1089.1-394.4-1318-866.4c-147.1-300.4-167.6-412.8-177.8-925.6l-10.2-453.6l-67.4-67.4c-85.8-85.8-112.4-183.9-112.4-425c0-378,155.3-766.3,429.1-1070.7c42.9-47,96-138.9,122.6-214.6c239.1-674.3,770.3-1134.1,1364.9-1177C4619.4-692,5120-444.7,5406-64.7c122.6,163.5,245.2,390.3,312.6,580.3c26.6,75.6,77.7,167.6,120.6,214.6c273.8,304.5,429.1,692.7,429.1,1070.7c0,239.1-26.6,339.2-110.4,423l-63.3,63.3v324.9c-2.1,478.1-71.5,745.8-251.3,954.2c-47,55.2-85.8,116.5-85.8,139c0,71.5-75.6,259.5-143,353.5C5369.3,4398,4613.2,4618.7,3969.6,4539z"/><path d="M7596.5,127.4c-267.7-57.2-549.7-296.3-690.6-592.6c-126.7-265.6-155.3-394.4-155.3-715.2c0-226.8,8.2-304.5,45-437.3c63.4-224.8,192.1-459.8,320.8-592.6c73.6-77.7,100.1-118.5,83.8-130.8c-63.3-49.1-275.9-157.3-533.3-269.7c-615-271.8-700.9-337.1-852.1-627.3c-130.8-247.2-230.9-670.2-183.9-772.4c47-100.1,224.8-155.3,764.2-232.9c478.1-71.5,790.8-92,1364.9-92c596.7,0,892.9,20.4,1420.1,100.1c641.6,98.1,745.8,149.2,715.2,355.5c-51.1,361.7-183.9,692.7-349.4,878.6c-104.2,116.5-183.9,161.4-672.3,380.1c-247.2,110.4-539.5,255.4-580.3,288.1c-4.1,4.1,38.8,51.1,92,106.2c300.4,306.5,449.5,819.4,376,1291.4C8681.5-440.7,8393.4-32,8027.6,96.7C7915.3,135.6,7710.9,149.9,7596.5,127.4z"/><path d="M2477.9-248.6C1454.2-661.3,1141.6-826.9,861.7-1106.8c-402.5-400.5-698.8-1119.8-756-1834.9c-18.4-230.9-2-257.5,210.5-339.2c637.5-245.2,1512.1-396.4,2774.8-478.1c416.8-26.6,2043.3-32.7,2198.6-8.2c94,14.3,96.1,14.3,110.4,106.2c20.4,139,85.8,326.9,179.8,519c63.4,126.7,124.7,212.5,228.9,318.7c163.5,165.5,304.5,249.3,704.9,423c151.2,65.4,282,124.7,290.2,132.8c6.1,8.2-22.5,73.6-67.4,145.1c-177.8,292.2-232.9,514.9-232.9,942c0,329,20.4,465.9,102.2,676.4c10.2,26.6-51.1,59.2-320.8,171.6c-183.9,75.6-392.3,159.4-465.9,188L5686-95.3l-51.1-67.5c-100.1-132.8-298.3-329-423-416.8c-165.5-120.6-431.1-241.1-613-282c-188-42.9-486.3-42.9-657.9,0c-363.7,89.9-743.8,341.2-982.8,651.8c-47,61.3-92,112.4-100.1,112.4C2851.9-99.4,2680.2-166.8,2477.9-248.6z"/></g></g>
</svg>