<?xml version="1.0" encoding="utf-8"?>
<!-- Svg Vector Icons : http://www.onlinewebfonts.com/icon -->
<!DOCTYPE svg PUBLIC "-//W3C//DTD SVG 1.1//EN" "http://www.w3.org/Graphics/SVG/1.1/DTD/svg11.dtd">
<svg version="1.1" xmlns="http://www.w3.org/2000/svg" xmlns:xlink="http://www.w3.org/1999/xlink" fill="#1c52a6" x="0px" y="0px" viewBox="0 0 1000 1000" enable-background="new 0 0 1000 1000" xml:space="preserve">
<metadata> Svg Vector Icons : http://www.onlinewebfonts.com/icon </metadata>
<g><path d="M343.6,734.8c0,25.1,20.3,45.4,45.4,45.4c25.1,0,45.4-20.3,45.4-45.4c0-25.1-20.3-45.4-45.4-45.4C364,689.5,343.6,709.8,343.6,734.8L343.6,734.8z"/><path d="M565.4,734.8c0,25.1,20.3,45.4,45.4,45.4c25.1,0,45.4-20.3,45.4-45.4c0-25.1-20.3-45.4-45.4-45.4C585.7,689.5,565.4,709.8,565.4,734.8z"/><path d="M954.9,215.9L500,10L45.1,215.9L500,421.8l402.1-182.8c-1.9,88.3-13.6,186.5-20.3,195.4c11.5,0,28.6,0,28.6,0s17.1,0,28.6,0c-7-9-19.1-112.4-20.5-202.8L954.9,215.9z"/><path d="M500,465.7L219.4,334.2c-66.5,69.7-107.5,164-107.5,267.7C111.9,815.9,286,990,500,990c214,0,388.1-174.1,388.1-388.1c0-105.3-42.3-200.8-110.6-270.8L500,465.7z M827.6,599.7c0,0.7,0.1,1.5,0.1,2.2c0,180.7-147,327.6-327.6,327.6c-176.9,0-321.4-140.9-327.3-316.4c1.2,1.8,2.5,3.7,3.8,5.4c58.3,76.3,200.7,65.5,318.2-24.1c16.6-12.7,31.7-26.2,45.4-40.4c-1.9,63.4-12.9,103.8-52.6,135.4c53.8-23.9,85.5-72,104.3-119.7c78.4,71.4,178.2,89.6,227.3,39.9C822.2,606.5,825,603.2,827.6,599.7z"/></g>
</svg>